<?xml version="1.0" encoding="iso-8859-1"?>
<!-- Uploaded to: SVG Repo, www.svgrepo.com, Generator: SVG Repo Mixer Tools -->
<svg height="800px" width="800px" version="1.1" id="Layer_1" xmlns="http://www.w3.org/2000/svg" xmlns:xlink="http://www.w3.org/1999/xlink" 
	 viewBox="0 0 512 512" xml:space="preserve">
<path style="fill:#EDEDED;" d="M467.368,489.739H44.411c-12.295,0-22.261-9.966-22.261-22.261V44.521
	c0-12.295,9.966-22.261,22.261-22.261h422.956c12.295,0,22.261,9.966,22.261,22.261v422.957
	C489.629,479.773,479.662,489.739,467.368,489.739z"/>
<path style="fill:#777777;" d="M58.772,475.489c3.26,3.26,3.26,8.546,0,11.805l-22.261,22.261c-1.629,1.631-3.765,2.445-5.902,2.445
	s-4.273-0.815-5.902-2.445L2.445,487.293c-3.26-3.26-3.26-8.546,0-11.805c3.26-3.26,8.546-3.26,11.805,0l8.011,8.011V28.501
	l-8.011,8.009c-3.26,3.26-8.546,3.26-11.805,0c-3.26-3.26-3.26-8.546,0-11.805L24.706,2.445c3.26-3.26,8.546-3.26,11.805,0
	l22.261,22.261c3.26,3.26,3.26,8.546,0,11.805c-1.629,1.631-3.765,2.445-5.902,2.445c-2.137,0-4.273-0.815-5.902-2.445l-8.011-8.009
	v454.998l8.011-8.011C50.227,472.228,55.513,472.228,58.772,475.489z"/>
<path style="fill:#98C7E5;" d="M512,233.416v44.522c0,12.295-9.966,22.261-22.261,22.261H100.174
	c-12.295,0-22.261-9.966-22.261-22.261v-44.522c0-12.295,9.966-22.261,22.261-22.261h389.565
	C502.034,211.155,512,221.121,512,233.416z"/>
<path style="fill:#56889B;" d="M289.392,238.981h33.391c3.073,0,5.565,2.492,5.565,5.565v22.261c0,3.073-2.492,5.565-5.565,5.565
	H111.304c-3.073,0-5.565-2.492-5.565-5.565v-22.261c0-3.073,2.492-5.565,5.565-5.565H267.13H289.392z"/>
<path style="fill:#FF8655;" d="M456.348,99.851v44.522c0,12.295-9.966,22.261-22.261,22.261H100.174
	c-12.295,0-22.261-9.966-22.261-22.261V99.851c0-12.295,9.966-22.261,22.261-22.261h333.913
	C446.381,77.59,456.348,87.556,456.348,99.851z"/>
<path style="fill:#B7441C;" d="M200.348,105.416h22.261c3.073,0,5.565,2.492,5.565,5.565v22.261c0,3.073-2.492,5.565-5.565,5.565
	H111.304c-3.073,0-5.565-2.492-5.565-5.565v-22.261c0-3.073,2.492-5.565,5.565-5.565h66.783H200.348z"/>
<path style="fill:#B6E152;" d="M367.304,366.981v44.522c0,12.295-9.966,22.261-22.261,22.261h-244.87
	c-12.295,0-22.261-9.966-22.261-22.261v-44.522c0-12.295,9.966-22.261,22.261-22.261h244.87
	C357.338,344.72,367.304,354.687,367.304,366.981z"/>
<path style="fill:#768900;" d="M267.13,372.546h27.826c3.073,0,5.565,2.492,5.565,5.565v22.261c0,3.073-2.492,5.565-5.565,5.565
	H111.304c-3.073,0-5.565-2.492-5.565-5.565v-22.261c0-3.073,2.492-5.565,5.565-5.565h133.565H267.13z"/>
</svg>