<svg xmlns="http://www.w3.org/2000/svg" xmlns:xlink="http://www.w3.org/1999/xlink" width="500" zoomAndPan="magnify" viewBox="0 0 375 374.999991" height="500" preserveAspectRatio="xMidYMid meet" version="1.0"><defs><g/><clipPath id="febd351c00"><path d="M 90.003906 90.003906 L 284.996094 90.003906 L 284.996094 284.996094 L 90.003906 284.996094 Z M 90.003906 90.003906 " clip-rule="nonzero"/></clipPath><clipPath id="aea232c9a4"><path d="M 187.5 90.003906 C 133.65625 90.003906 90.003906 133.65625 90.003906 187.5 C 90.003906 241.34375 133.65625 284.996094 187.5 284.996094 C 241.34375 284.996094 284.996094 241.34375 284.996094 187.5 C 284.996094 133.65625 241.34375 90.003906 187.5 90.003906 Z M 187.5 90.003906 " clip-rule="nonzero"/></clipPath></defs><g clip-path="url(#febd351c00)"><g clip-path="url(#aea232c9a4)"><path fill="#000000" d="M 90.003906 90.003906 L 284.996094 90.003906 L 284.996094 284.996094 L 90.003906 284.996094 Z M 90.003906 90.003906 " fill-opacity="1" fill-rule="nonzero"/></g></g><g fill="#ffbd59" fill-opacity="1"><g transform="translate(122.669234, 233.000916)"><g><path d="M 11.578125 0 L 11.578125 -88.671875 L 44 -88.671875 C 47.894531 -88.671875 51.660156 -88.035156 55.296875 -86.765625 C 58.835938 -85.492188 61.972656 -83.675781 64.703125 -81.3125 C 67.609375 -78.863281 69.875 -76.003906 71.5 -72.734375 C 73.050781 -69.460938 73.828125 -66.054688 73.828125 -62.515625 C 73.828125 -58.878906 73.050781 -55.472656 71.5 -52.296875 C 69.875 -49.035156 67.609375 -46.128906 64.703125 -43.578125 C 61.972656 -41.222656 58.835938 -39.410156 55.296875 -38.140625 C 51.660156 -36.773438 47.894531 -36.09375 44 -36.09375 L 23.15625 -36.09375 L 23.15625 0 Z M 23.15625 -47.53125 L 44 -47.53125 C 47.351562 -47.53125 50.4375 -48.210938 53.25 -49.578125 C 56.070312 -50.941406 58.34375 -52.757812 60.0625 -55.03125 C 61.695312 -57.300781 62.515625 -59.796875 62.515625 -62.515625 C 62.515625 -65.148438 61.695312 -67.601562 60.0625 -69.875 C 58.34375 -72.144531 56.070312 -73.957031 53.25 -75.3125 C 50.34375 -76.59375 47.257812 -77.234375 44 -77.234375 L 22.875 -77.234375 Z M 23.15625 -47.53125 "/></g></g></g><g fill="#ffbd59" fill-opacity="1"><g transform="translate(177.005878, 233.000916)"><g><path d="M 11.578125 0 L 11.578125 -88.671875 L 38.40625 -88.671875 C 44.675781 -88.671875 50.535156 -87.535156 55.984375 -85.265625 C 61.429688 -82.898438 66.109375 -79.539062 70.015625 -75.1875 C 73.640625 -71.101562 76.453125 -66.425781 78.453125 -61.15625 C 80.359375 -55.882812 81.3125 -50.34375 81.3125 -44.53125 C 81.3125 -38.632812 80.359375 -33.050781 78.453125 -27.78125 C 76.453125 -22.425781 73.640625 -17.707031 70.015625 -13.625 C 66.109375 -9.175781 61.429688 -5.816406 55.984375 -3.546875 C 50.535156 -1.179688 44.675781 0 38.40625 0 Z M 22.875 -11.3125 L 38.40625 -11.3125 C 45.039062 -11.3125 50.765625 -12.898438 55.578125 -16.078125 C 60.203125 -19.160156 63.785156 -23.242188 66.328125 -28.328125 C 68.785156 -33.328125 70.015625 -38.726562 70.015625 -44.53125 C 70.015625 -48.894531 69.285156 -53.070312 67.828125 -57.0625 C 66.378906 -60.96875 64.242188 -64.46875 61.421875 -67.5625 C 58.703125 -70.738281 55.390625 -73.144531 51.484375 -74.78125 C 47.484375 -76.414062 43.125 -77.234375 38.40625 -77.234375 L 22.875 -77.234375 Z M 22.875 -11.3125 "/></g></g></g><g fill="#ffbd59" fill-opacity="1"><g transform="translate(238.151986, 233.000916)"><g><path d="M 14.84375 0 C 13.300781 0 11.984375 -0.585938 10.890625 -1.765625 C 9.804688 -2.859375 9.265625 -4.175781 9.265625 -5.71875 C 9.265625 -7.257812 9.851562 -8.578125 11.03125 -9.671875 C 12.125 -10.765625 13.394531 -11.3125 14.84375 -11.3125 C 16.382812 -11.3125 17.75 -10.765625 18.9375 -9.671875 C 20.019531 -8.492188 20.5625 -7.175781 20.5625 -5.71875 C 20.5625 -4.175781 20.019531 -2.859375 18.9375 -1.765625 C 17.75 -0.585938 16.382812 0 14.84375 0 Z M 14.84375 0 "/></g></g></g></svg>